<?xml version="1.0" encoding="UTF-8"?>
<svg version="1.1" xmlns="http://www.w3.org/2000/svg" width="640" height="640">
<path d="M0 0 C1.16660156 0.21962402 2.33320313 0.43924805 3.53515625 0.66552734 C19.04205472 3.67201027 34.10193455 7.76629818 49 13 C49.85190918 13.29600098 50.70381836 13.59200195 51.58154297 13.89697266 C89.88570893 27.36345152 125.87878385 48.43390455 155.7890625 75.97265625 C157.73982911 77.7614334 159.72980395 79.47843119 161.75 81.1875 C170.85202502 89.14484844 179.38143469 97.8228399 186.87109375 107.3125 C189.11635885 110.1468897 191.45908438 112.87997006 193.8125 115.625 C227.6831576 156.35354964 249.36192276 207.1862765 259 259 C259.21172852 260.11858398 259.42345703 261.23716797 259.64160156 262.38964844 C265.69055048 295.91290416 266.12582151 333.47723347 260 367 C259.69400879 368.71606445 259.69400879 368.71606445 259.38183594 370.46679688 C248.69148795 429.00695572 223.56012596 484.7599512 183.03125 528.78515625 C181.22158012 530.75839244 179.48160109 532.77107813 177.75 534.8125 C170.19635893 543.47541703 161.85735075 551.67851984 153 559 C152.19900879 559.67168213 152.19900879 559.67168213 151.38183594 560.35693359 C121.61948494 585.27554548 88.42505498 604.53856664 52 618 C51.18724609 618.30131836 50.37449219 618.60263672 49.53710938 618.91308594 C32.90535703 624.98374705 15.60449112 629.16096554 -1.8125 632.25 C-3.07936646 632.47647217 -3.07936646 632.47647217 -4.37182617 632.70751953 C-21.80011146 635.62732103 -39.10044171 636.40740072 -56.75 636.375 C-58.42860107 636.37418427 -58.42860107 636.37418427 -60.14111328 636.37335205 C-78.41632518 636.33264639 -96.01531665 635.41422529 -114 632 C-115.75207764 631.67056396 -115.75207764 631.67056396 -117.53955078 631.33447266 C-133.04629062 628.32760791 -148.10020775 624.22681914 -163 619 C-163.84127441 618.70931641 -164.68254883 618.41863281 -165.54931641 618.11914062 C-203.89481844 604.72371944 -239.86855841 583.5719754 -269.78515625 556.03125 C-271.75839244 554.22158012 -273.77107813 552.48160109 -275.8125 550.75 C-284.47541703 543.19635893 -292.67851984 534.85735075 -300 526 C-300.44778809 525.46600586 -300.89557617 524.93201172 -301.35693359 524.38183594 C-326.27554548 494.61948494 -345.53856664 461.42505498 -359 425 C-359.45197754 423.78086914 -359.45197754 423.78086914 -359.91308594 422.53710938 C-365.99109991 405.88521243 -370.17147158 388.56555848 -373.25 371.125 C-373.40098145 370.27204346 -373.55196289 369.41908691 -373.70751953 368.5402832 C-374.18185241 365.69829665 -374.60052112 362.85351518 -375 360 C-375.17805176 358.7411499 -375.35610352 357.4822998 -375.53955078 356.18530273 C-377.25962545 343.08138316 -377.39862083 330.01332434 -377.375 316.8125 C-377.37445618 315.66725861 -377.37391235 314.52201721 -377.37335205 313.34207153 C-377.33318005 294.90264207 -376.46081147 277.14375535 -373 259 C-372.78037598 257.83339844 -372.56075195 256.66679687 -372.33447266 255.46484375 C-369.32769102 239.95640459 -365.22737396 224.90137384 -360 210 C-359.56397461 208.73808838 -359.56397461 208.73808838 -359.11914062 207.45068359 C-345.72346176 169.10444394 -324.5709458 133.12648419 -297.02734375 103.2109375 C-295.2385666 101.26017089 -293.52156881 99.27019605 -291.8125 97.25 C-283.85515156 88.14797498 -275.1771601 79.61856531 -265.6875 72.12890625 C-262.8531103 69.88364115 -260.12002994 67.54091562 -257.375 65.1875 C-216.64093422 31.31225506 -165.8162987 9.650704 -114 0 C-112.8867334 -0.21172852 -111.7734668 -0.42345703 -110.62646484 -0.64160156 C-74.88254621 -7.12741397 -35.665338 -6.80294726 0 0 Z " fill="#1977F3" transform="translate(377,4)"/>
<path d="M0 0 C1.6318356 0.01071258 3.26367154 0.0213727 4.89550781 0.03198242 C17.27856097 0.14779182 29.51160127 0.85958777 41.8125 2.3125 C44.08201813 2.56782497 46.35155005 2.8230274 48.62109375 3.078125 C53.00296675 3.58166466 57.38378564 4.09211694 61.76171875 4.62890625 C62.64174561 4.73662354 63.52177246 4.84434082 64.4284668 4.95532227 C66.8125 5.3125 66.8125 5.3125 70.8125 6.3125 C70.8125 32.3825 70.8125 58.4525 70.8125 85.3125 C46.6875 85.625 46.6875 85.625 39.16357422 85.70043945 C21.18054319 85.95403571 4.21602324 86.7881073 -9.69921875 99.70703125 C-18.10697851 108.77681933 -21.23577282 122.02950736 -21.39282227 134.12231445 C-21.40285499 134.79694575 -21.41288771 135.47157705 -21.42322445 136.16665173 C-21.45444354 138.3363274 -21.47931159 140.50602146 -21.50390625 142.67578125 C-21.52232503 144.02096123 -21.54116252 145.36613554 -21.5604248 146.71130371 C-21.62868558 151.68246879 -21.68885784 156.65374227 -21.75 161.625 C-21.894375 172.741875 -22.03875 183.85875 -22.1875 195.3125 C7.1825 195.3125 36.5525 195.3125 66.8125 195.3125 C59.91435185 243.59953704 59.91435185 243.59953704 56.4375 265.4375 C55.24125 272.98625 54.045 280.535 52.8125 288.3125 C28.0625 288.3125 3.3125 288.3125 -22.1875 288.3125 C-22.1875 362.2325 -22.1875 436.1525 -22.1875 512.3125 C-51.00414328 515.77049719 -51.00414328 515.77049719 -59.94140625 515.7109375 C-61.50096291 515.71524277 -61.50096291 515.71524277 -63.09202576 515.71963501 C-65.24291545 515.72163464 -67.39382513 515.71640134 -69.54467773 515.70361328 C-72.75352316 515.68748229 -75.9611131 515.70361577 -79.16992188 515.72265625 C-81.30208599 515.72067341 -83.43424935 515.71682889 -85.56640625 515.7109375 C-86.47967178 515.71701019 -87.39293732 515.72308289 -88.33387756 515.7293396 C-99.82997419 515.6135096 -110.5798008 513.7634624 -122.1875 512.3125 C-122.1875 438.3925 -122.1875 364.4725 -122.1875 288.3125 C-148.9175 288.3125 -175.6475 288.3125 -203.1875 288.3125 C-203.1875 257.6225 -203.1875 226.9325 -203.1875 195.3125 C-176.4575 195.3125 -149.7275 195.3125 -122.1875 195.3125 C-122.22230469 189.18042969 -122.25710938 183.04835938 -122.29296875 176.73046875 C-122.30832758 172.80663089 -122.32277155 168.88283097 -122.33398438 164.95898438 C-122.35180166 158.75374493 -122.37269858 152.54864037 -122.41381836 146.34350586 C-122.44681812 141.33138379 -122.46443703 136.31940669 -122.47213173 131.30718422 C-122.47760338 129.41097041 -122.48828373 127.51476301 -122.50469017 125.61861229 C-122.70136495 101.90878296 -119.06034988 79.58546715 -108.1875 58.3125 C-107.47787109 56.87970703 -107.47787109 56.87970703 -106.75390625 55.41796875 C-93.8274778 30.3708242 -70.66795795 14.14363018 -44.375 5.5625 C-29.67551635 1.30394685 -15.26358323 -0.18914699 0 0 Z " fill="#FDFDFD" transform="translate(392.1875,124.6875)"/>
</svg>
